# xmcd
#
# Track frame offsets:
#	150
#	19275
#	40307
#	55394
#	69463
#	87369
#	104743
#	122943
#	138531
#	154131
#	175681
#	190831
# Disc length: 2717 seconds
# Revision: 2
# Processed by: cddbd v1.5.2PL0 Copyright (c) Steve Scherf et al.
#
# Submitted via: libkcddb 0.31
#
DISCID=ae0a9b0c
DTITLE=Sarah Blackwood - Way Back Home
DYEAR=2008
DGENRE=Rock
TTITLE0=Lonely Parade
TTITLE1=Dyin' Day
TTITLE2=My Mistake Baby Boy
TTITLE3=Dealing Aces
TTITLE4=Trainwreck
TTITLE5=Simple Like This
TTITLE6=Monday Morning
TTITLE7=Bad Job Jesus
TTITLE8=Sweet Thing
TTITLE9=Mama Open Your Eyes
TTITLE10=Way Back Home
TTITLE11=I'm Sorry
EXTD=
EXTT0=
EXTT1=
EXTT2=
EXTT3=
EXTT4=
EXTT5=
EXTT6=
EXTT7=
EXTT8=
EXTT9=
EXTT10=
EXTT11=
PLAYORDER=
